<svg xmlns="http://www.w3.org/2000/svg" width="512" height="512" viewBox="0 0 512 512" version="1.1"><path d="M 64.896 70.250 C 55.494 82.143, 40.672 105.121, 25.778 130.897 L 19.770 141.294 21.486 144.897 C 26.699 155.837, 41.753 175.799, 52.133 185.534 C 57.645 190.704, 74.131 203.263, 88.768 213.442 L 97.036 219.192 101.532 209.700 C 108.210 195.602, 110.101 187.268, 110.737 169.124 C 111.300 153.048, 110.555 146.035, 106.814 132.172 C 103.026 118.138, 93.909 98.193, 85.708 86 C 79.682 77.040, 70.571 65, 69.818 65 C 69.393 65, 67.179 67.362, 64.896 70.250 M 268 133.351 C 268 134.053, 373.177 312.393, 376.084 316.620 C 382.234 325.564, 391.881 332.468, 404 336.598 C 410.270 338.735, 429.114 339.286, 431.012 337.388 C 431.795 336.605, 430.308 334.092, 425.691 328.400 C 422.166 324.055, 415.335 313.798, 410.510 305.607 C 401.802 290.824, 401.749 290.694, 403.369 287.953 C 405.605 284.168, 405.416 281.595, 402.668 278.401 C 400.958 276.412, 399.327 275.655, 396.548 275.558 C 392.782 275.427, 392.715 275.350, 385.250 262.568 C 377.819 249.845, 377.757 249.681, 379.370 246.951 C 381.735 242.947, 381.385 240.231, 378.077 236.923 C 376.003 234.849, 374.175 234, 371.786 234 C 368.530 234, 368.174 233.582, 361.093 221.456 C 354.262 209.758, 353.878 208.793, 355.384 207.128 C 356.273 206.146, 357 203.965, 357 202.282 C 357 197.755, 354.086 194.781, 348.974 194.088 C 344.657 193.504, 344.587 193.429, 338.314 182.689 C 334.841 176.743, 332 171.511, 332 171.061 C 332 170.612, 332.675 169.685, 333.500 169 C 335.331 167.480, 335.411 162.125, 333.637 159.789 C 331.943 157.560, 327.225 155.794, 324.920 156.525 C 323.601 156.944, 322.674 156.270, 321.533 154.064 C 318.988 149.143, 313.974 144.017, 310.105 142.383 C 308.122 141.545, 298.850 139.323, 289.500 137.444 C 280.150 135.566, 271.488 133.789, 270.250 133.495 C 269.012 133.202, 268 133.137, 268 133.351 M 199 153.691 C 184.640 156.095, 170.097 166.173, 162.648 178.882 C 157.120 188.316, 155.538 194.236, 155.538 205.500 C 155.538 216.722, 157.127 222.708, 162.556 231.943 C 174.616 252.457, 201.569 262.894, 223.369 255.493 C 239.209 250.115, 251.977 237.223, 257.586 220.943 C 260.181 213.414, 260.181 197.586, 257.586 190.057 C 252.810 176.195, 243.257 165.216, 230.500 158.930 C 219.831 153.672, 209.437 151.944, 199 153.691" stroke="none" fill="#ebb784" fill-rule="evenodd"/><path d="M 133.500 22.172 C 114.541 32.051, 88.473 48.750, 76.725 58.544 L 69.951 64.192 73.470 68.846 C 94.303 96.401, 105.389 119.983, 110.033 146.624 C 110.852 151.318, 111.092 158.995, 110.737 169.124 C 110.101 187.268, 108.210 195.602, 101.532 209.700 L 97.036 219.192 88.768 213.447 C 50.584 186.918, 38.287 174.296, 20.190 143.057 C 19.579 142.003, 18.180 143.755, 15.002 149.557 C 12.608 153.926, 8.366 160.875, 5.575 165 C 0.930 171.864, 0.500 172.988, 0.500 178.261 C 0.500 183.956, 0.560 184.075, 5.750 188.656 C 8.637 191.205, 11 193.900, 11 194.646 C 11 195.393, 8.769 201.537, 6.041 208.301 C -0.365 224.188, -0.174 225.097, 11.360 233.653 C 17.320 238.074, 21.199 239.034, 24.963 237.020 C 25.970 236.481, 31.003 232.433, 36.147 228.025 C 42.542 222.545, 46.309 220.008, 48.058 220.005 C 51.076 219.999, 80 241.296, 80 243.525 C 80 244.300, 77.750 250.408, 75 257.098 C 68.019 274.082, 68.189 275.882, 77.431 282.860 C 88.271 291.044, 90.264 290.723, 104.590 278.484 C 110.532 273.407, 115.389 270.014, 116.722 270.009 C 119.317 269.999, 164.127 302.885, 212 339.934 C 240.960 362.347, 264.023 378.629, 287.548 393.271 C 296.375 398.764, 296.156 397.767, 291.927 413.205 L 289.542 421.910 291.601 424.667 C 294.696 428.813, 303.884 433.497, 307.259 432.650 C 308.782 432.268, 313.155 428.656, 317.147 424.482 C 322.278 419.120, 325.006 417, 326.779 417 C 329.217 417, 354.851 429.870, 358.250 432.801 C 360.382 434.640, 360.459 438.700, 358.500 446 C 356.403 453.814, 356.592 457.278, 359.250 459.713 C 362.827 462.990, 369.615 466, 373.429 466 C 376.575 466, 377.587 465.220, 383.219 458.461 C 386.673 454.315, 390.422 450.689, 391.549 450.404 C 394.189 449.734, 417.726 459.620, 418.954 461.914 C 419.554 463.035, 419.197 466.630, 417.915 472.384 C 415.475 483.335, 416.185 485.328, 423.929 489.250 C 432.278 493.479, 433.357 493.164, 441.975 483.988 C 446.564 479.103, 450.282 475.981, 451.505 475.988 C 452.608 475.995, 459.808 478.693, 467.505 481.985 C 483.903 488.997, 488.033 489.524, 493.120 485.250 C 498.025 481.129, 509.625 462.731, 511.042 456.826 C 512.859 449.252, 511.833 438.522, 508.704 432.378 C 507.270 429.561, 495.837 414.691, 483.298 399.334 C 470.759 383.977, 454.229 363.682, 446.565 354.233 C 433.641 338.301, 432.444 337.107, 430.065 337.777 C 425 339.204, 409.714 338.499, 404 336.575 C 391.951 332.518, 382.246 325.581, 376.084 316.620 C 372.341 311.177, 267.895 133.770, 268.236 133.435 C 268.766 132.913, 307.046 140.954, 308.993 141.996 C 310.141 142.611, 311 142.670, 311 142.134 C 311 139.844, 295.045 98.707, 293.490 96.989 C 292.536 95.935, 289.770 94.314, 287.345 93.388 C 283.715 92.002, 282.260 91.905, 279.128 92.844 C 277.034 93.471, 265.557 100.963, 253.623 109.492 C 241.689 118.021, 231.118 125, 230.132 125 C 227.795 125, 195.123 118.403, 189.689 116.834 C 175.748 112.809, 163.357 100.137, 159.049 85.500 C 158.402 83.300, 157.488 72.275, 157.018 61 C 156 36.548, 155.088 33.113, 147.537 25.318 C 141.741 19.333, 139.789 18.896, 133.500 22.172 M 199 153.691 C 184.640 156.095, 170.097 166.173, 162.648 178.882 C 157.120 188.316, 155.538 194.236, 155.538 205.500 C 155.538 216.722, 157.127 222.708, 162.556 231.943 C 174.616 252.457, 201.569 262.894, 223.369 255.493 C 239.209 250.115, 251.977 237.223, 257.586 220.943 C 260.181 213.414, 260.181 197.586, 257.586 190.057 C 252.810 176.195, 243.257 165.216, 230.500 158.930 C 219.831 153.672, 209.437 151.944, 199 153.691" stroke="none" fill="#549bf2" fill-rule="evenodd"/></svg>